<?xml version="1.0" encoding="UTF-8"?>
<svg id="Layer_1" data-name="Layer 1" xmlns="http://www.w3.org/2000/svg" version="1.1" viewBox="0 0 1199 1200">
  <defs>
    <style>
      .cls-1 {
        fill: #fff;
        stroke-width: 0px;
      }
    </style>
  </defs>
  <path class="cls-1" d="M878.74,739.62c0,38.56-31.25,69.81-69.81,69.81s-69.81,31.26-69.81,69.81-31.25,69.81-69.81,69.81h-139.62c-38.55,0-69.81-31.25-69.81-69.81s-31.25-69.81-69.81-69.81-69.81-31.25-69.81-69.81,31.26-69.81,69.81-69.81,69.81,31.25,69.81,69.81,31.26,69.81,69.81,69.81h139.62c38.56,0,69.81-31.25,69.81-69.81s-31.25-69.81-69.81-69.81h-139.62c-38.55,0-69.81-31.26-69.81-69.81s-31.25-69.81-69.81-69.81-69.81-31.26-69.81-69.81,31.26-69.81,69.81-69.81,69.81-31.26,69.81-69.81,31.26-69.81,69.81-69.81h139.62c38.56,0,69.81,31.25,69.81,69.81s31.26,69.81,69.81,69.81,69.81,31.25,69.81,69.81-31.25,69.81-69.81,69.81-69.81-31.26-69.81-69.81-31.25-69.81-69.81-69.81h-139.62c-38.55,0-69.81,31.25-69.81,69.81s31.26,69.81,69.81,69.81h139.62c38.56,0,69.81,31.25,69.81,69.81s31.26,69.81,69.81,69.81,69.81,31.25,69.81,69.81Z"/>
</svg>