<?xml version="1.0" encoding="UTF-8"?>
<svg id="Layer_1" xmlns="http://www.w3.org/2000/svg" version="1.1" viewBox="0 0 1199 1200">
  <!-- Generator: Adobe Illustrator 30.3.0, SVG Export Plug-In . SVG Version: 2.1.3 Build 182)  -->
  <defs>
    <style>
      .st0 {
        fill: #111;
      }

      .st1 {
        display: none;
      }
    </style>
  </defs>
  <g class="st1">
    <path class="st0" d="M332.6,1009.3c-3.7-1.7-6.6-4.2-8.6-7.4s-3.2-6.9-3.6-11.2h11.1c.2,2.6.9,4.8,2.3,6.6s3.1,3.2,5.3,4.1,4.5,1.4,7.1,1.4,4.2-.3,6-.8c1.7-.5,3.1-1.4,4.1-2.6,1-1.2,1.5-2.7,1.5-4.5s-.8-3.8-2.3-5.1c-1.5-1.3-3.9-2.2-7.1-2.8l-9.8-1.9c-4.8-.9-8.7-2.8-11.6-5.5-3-2.8-4.4-6.3-4.4-10.7s1-6.3,2.9-8.9,4.6-4.7,8-6.2c3.4-1.5,7.3-2.2,11.5-2.2s8.8.8,12.1,2.4,6,3.8,7.8,6.6c1.8,2.8,2.9,6.1,3.1,9.9h-11.2c-.1-1.9-.6-3.5-1.5-5s-2.3-2.7-4.1-3.5c-1.8-.9-4.1-1.3-6.8-1.3s-4,.3-5.7.9c-1.7.6-3,1.4-4,2.5-1,1.1-1.4,2.5-1.4,4s.8,3.6,2.4,4.6,4,1.8,7.3,2.5l9.7,1.9c4.8.9,8.7,2.8,11.6,5.5,2.9,2.7,4.4,6.4,4.4,10.9s-.9,6.8-2.7,9.6-4.4,5-7.8,6.6c-3.4,1.6-7.5,2.4-12.3,2.4s-9.4-.9-13.1-2.6h0Z"/>
    <path class="st0" d="M383.7,1010c-2.2-1.2-3.9-3-5.1-5.5-1.3-2.4-1.9-5.3-1.9-8.8v-25.4h10.1v23.9c0,2.9.6,5.2,1.9,7s3.1,2.6,5.4,2.6,3.2-.4,4.5-1.2,2.3-1.9,3.1-3.4c.7-1.5,1.1-3.2,1.1-5.1v-23.8h10v40h-9.9v-1.6c0-1,0-2,.2-3,0-.3.1-.6.2-.9-1.1,2.1-2.7,3.8-4.6,5.1-1.9,1.3-4.5,1.9-7.6,1.9s-5.2-.6-7.3-1.8h0Z"/>
    <path class="st0" d="M422.9,970.4h10v1.8c0,1.2-.1,2.5-.3,3.9,1.3-2.2,3.1-4,5.2-5.2,2.2-1.2,4.8-1.8,7.9-1.8s6.6.9,9.2,2.8c2.6,1.8,4.7,4.4,6.1,7.6,1.5,3.2,2.2,7,2.2,11.2s-.8,7.9-2.3,11.2-3.7,5.7-6.4,7.5-5.8,2.6-9.2,2.6-5.7-.6-7.7-1.8-3.6-2.9-5-5.2c.2,1.5.3,2.8.3,3.8v18.4h-10v-56.8h0ZM448.2,1002.3c1.6-1.2,2.8-2.7,3.6-4.8.9-2,1.3-4.4,1.3-7s-.4-5-1.2-7c-.8-2-2-3.6-3.6-4.8s-3.4-1.7-5.5-1.7-3.8.5-5.3,1.6c-1.6,1.1-2.8,2.7-3.7,4.7-.9,2-1.3,4.4-1.3,7.1s.4,5,1.3,7,2.1,3.7,3.6,4.8c1.6,1.2,3.4,1.7,5.4,1.7s3.8-.6,5.4-1.7h0Z"/>
    <path class="st0" d="M478.7,1009.3c-3.1-1.7-5.5-4.2-7.2-7.4-1.7-3.2-2.6-7.1-2.6-11.7s.9-7.8,2.6-11.1c1.7-3.2,4.1-5.7,7.2-7.5,3.1-1.8,6.5-2.7,10.3-2.7s7.4.9,10.3,2.7c2.9,1.8,5.1,4.3,6.6,7.5,1.5,3.2,2.3,7,2.3,11.4v2.2h-29.1c0,2.1.4,4,1.3,5.7.9,1.7,2.1,3,3.6,4,1.5,1,3.3,1.5,5.2,1.5s4.1-.6,5.7-1.8c1.6-1.2,2.5-2.8,2.8-4.9h10.2c-.3,2.7-1.2,5.2-2.8,7.4-1.6,2.2-3.8,4-6.5,5.2-2.7,1.3-5.9,1.9-9.4,1.9s-7.5-.8-10.6-2.5h0ZM495.4,979c-1.6-1.7-3.8-2.5-6.5-2.5s-4.9.8-6.7,2.5c-1.8,1.7-2.8,3.9-3.1,6.6h19c-.1-2.7-1-4.9-2.6-6.6Z"/>
    <path class="st0" d="M516.3,970.4h10v3c0,1.5-.1,2.9-.3,4.2,1.2-2.6,2.8-4.6,4.7-6.2,1.9-1.6,4.3-2.3,7-2.3s1.5,0,2.1.2v9.7c-.9-.2-1.8-.3-2.9-.3-2.1,0-4,.4-5.6,1.2s-2.8,2.1-3.7,3.8-1.3,4-1.3,6.9v19.8h-10v-40h0Z"/>
    <path class="st0" d="M547.2,953h17.1l14.6,41.5c.2.7.4,1.2.5,1.6s.2.8.5,1.5c.2.5.3,1.2.6,2.2.1-.3.2-.7.2-1,.2-.7.3-1.3.5-2,.2-.7.4-1.5.7-2.2l14-41.5h17v57.4h-10.3v-38.6c0-3.8,0-6.6.2-8.2l-15.8,46.8h-13.1l-16.7-46.8c.2,2.5.2,5.2.2,8.2v38.6h-10.2v-57.4h0Z"/>
    <path class="st0" d="M631.3,1009.3c-3.1-1.7-5.5-4.2-7.3-7.4-1.7-3.2-2.6-7-2.6-11.4s.9-8.1,2.6-11.3,4.2-5.7,7.3-7.5c3.1-1.8,6.6-2.7,10.6-2.7s7.5.9,10.7,2.6c3.1,1.8,5.5,4.2,7.3,7.5s2.6,7,2.6,11.4-.9,8.2-2.6,11.4c-1.8,3.2-4.2,5.7-7.3,7.4-3.1,1.7-6.7,2.6-10.7,2.6s-7.5-.9-10.7-2.6h0ZM647.4,1002.4c1.6-1.1,2.8-2.6,3.7-4.6.9-2,1.3-4.4,1.3-7.2,0-4.3-1-7.6-2.9-10-1.9-2.4-4.4-3.6-7.5-3.6s-3.8.5-5.4,1.6c-1.6,1.1-2.8,2.6-3.7,4.6-.9,2-1.3,4.5-1.3,7.3s.4,5.2,1.3,7.2c.8,2,2,3.6,3.6,4.6,1.6,1.1,3.4,1.6,5.5,1.6s3.9-.5,5.5-1.6h0Z"/>
    <path class="st0" d="M677,1009.5c-2.8-1.6-4.9-4-6.5-7.2-1.6-3.2-2.3-7.1-2.3-11.7s.9-8.5,2.6-11.7c1.7-3.2,4-5.7,6.8-7.3s5.8-2.5,9.1-2.5,5.4.6,7.4,1.9,3.7,3,5,5.1c-.2-1-.3-2.3-.3-3.9v-19.2h10v57.4h-10v-1.6c0-1.6.1-2.9.3-3.8-1,1.9-2.5,3.5-4.5,4.9s-4.7,2.1-8,2.1-6.7-.8-9.5-2.4h0ZM694.2,1002.3c1.6-1.2,2.8-2.8,3.7-4.8s1.3-4.4,1.3-7c0-4-1-7.3-2.9-9.8s-4.4-3.7-7.5-3.7-3.8.6-5.4,1.7c-1.6,1.2-2.9,2.7-3.8,4.8s-1.3,4.3-1.3,7,.5,5,1.3,7.1,2.2,3.6,3.8,4.8c1.6,1.1,3.4,1.7,5.4,1.7s3.7-.6,5.3-1.7Z"/>
    <path class="st0" d="M726.4,1009.3c-3.1-1.7-5.5-4.2-7.2-7.4-1.7-3.2-2.6-7.1-2.6-11.7s.9-7.8,2.6-11.1c1.7-3.2,4.1-5.7,7.2-7.5,3.1-1.8,6.5-2.7,10.3-2.7s7.4.9,10.3,2.7c2.9,1.8,5.1,4.3,6.6,7.5,1.5,3.2,2.3,7,2.3,11.4v2.2h-29.1c0,2.1.4,4,1.3,5.7.9,1.7,2.1,3,3.6,4,1.5,1,3.3,1.5,5.2,1.5s4.1-.6,5.7-1.8c1.6-1.2,2.5-2.8,2.8-4.9h10.2c-.3,2.7-1.2,5.2-2.8,7.4-1.6,2.2-3.8,4-6.5,5.2-2.7,1.3-5.8,1.9-9.3,1.9s-7.5-.8-10.6-2.5h0ZM743.1,979c-1.6-1.7-3.8-2.5-6.5-2.5s-4.9.8-6.7,2.5c-1.8,1.7-2.8,3.9-3.1,6.6h19c-.1-2.7-1-4.9-2.6-6.6h0Z"/>
    <path class="st0" d="M764,970.4h10v3c0,1.5-.1,2.9-.3,4.2,1.2-2.6,2.8-4.6,4.7-6.2,1.9-1.6,4.3-2.3,7-2.3s1.5,0,2.1.2v9.7c-.9-.2-1.8-.3-2.9-.3-2.1,0-4,.4-5.6,1.2s-2.8,2.1-3.7,3.8-1.3,4-1.3,6.9v19.8h-10v-40h0Z"/>
    <path class="st0" d="M793.7,970.4h10v1.8c0,.4,0,.8,0,1.2,0,.4,0,.8-.1,1.3,0,.3,0,.8-.2,1.5,1.2-2.2,2.8-3.9,4.8-5.2s4.5-1.9,7.5-1.9,5.4.7,7.5,2,3.8,3.2,4.9,5.6c1.1,2.4,1.7,5.2,1.7,8.5v25.3h-10v-23.8c0-3-.7-5.3-2-7-1.3-1.7-3.2-2.6-5.5-2.6s-3,.4-4.3,1.3c-1.3.9-2.3,2.1-3.1,3.6-.7,1.5-1.1,3.2-1.1,5v23.5h-10v-40h0Z"/>
    <path class="st0" d="M847.1,1009.3c-3.1-1.7-5.5-4.2-7.3-7.4-1.7-3.2-2.6-7-2.6-11.4s.9-8.1,2.6-11.3,4.2-5.7,7.3-7.5c3.1-1.8,6.6-2.7,10.6-2.7s7.5.9,10.7,2.6c3.1,1.8,5.5,4.2,7.3,7.5s2.6,7,2.6,11.4-.9,8.2-2.6,11.4c-1.8,3.2-4.2,5.7-7.3,7.4-3.1,1.7-6.7,2.6-10.7,2.6s-7.5-.9-10.7-2.6h0ZM863.3,1002.4c1.6-1.1,2.8-2.6,3.7-4.6s1.3-4.4,1.3-7.2c0-4.3-1-7.6-2.9-10-1.9-2.4-4.4-3.6-7.5-3.6s-3.8.5-5.4,1.6-2.8,2.6-3.7,4.6c-.9,2-1.3,4.5-1.3,7.3s.4,5.2,1.3,7.2c.8,2,2,3.6,3.6,4.6s3.4,1.6,5.5,1.6,3.9-.5,5.5-1.6h0Z"/>
  </g>
  <path class="st0" d="M1079.5,840c0,66.3-53.7,120-120,120s-120,53.7-120,120-53.7,120-120,120h-240c-66.3,0-120-53.7-120-120s-53.7-120-120-120-120-53.7-120-120,53.7-120,120-120,120,53.7,120,120,53.7,120,120,120h240c66.3,0,120-53.7,120-120s-53.7-120-120-120h-240c-66.3,0-120-53.7-120-120s-53.7-120-120-120-120-53.7-120-120,53.7-120,120-120,120-53.7,120-120S413.2,0,479.5,0h240c66.3,0,120,53.7,120,120s53.7,120,120,120,120,53.7,120,120-53.7,120-120,120-120-53.7-120-120-53.7-120-120-120h-240c-66.3,0-120,53.7-120,120s53.7,120,120,120h240c66.3,0,120,53.7,120,120s53.7,120,120,120,120,53.7,120,120Z"/>
</svg>